<svg viewBox="0 0 16 16" xmlns="http://www.w3.org/2000/svg" shape-rendering="crispEdges" role="img" aria-label="Thomas Anakin — friendly block-Jedi">
  <rect width="16" height="16" rx="3" fill="#7ec0ee"/>
  <!-- friendly block-Jedi head (no saber so it stays crisp at 16px) -->
  <rect x="3" y="1" width="10" height="1" fill="#6b4423"/><rect x="3" y="2" width="10" height="1" fill="#6b4423"/>
  <rect x="3" y="3" width="1" height="1" fill="#6b4423"/><rect x="4" y="3" width="8" height="1" fill="#f0c8a0"/><rect x="12" y="3" width="1" height="1" fill="#6b4423"/>
  <rect x="3" y="4" width="2" height="1" fill="#f0c8a0"/><rect x="5" y="4" width="1" height="1" fill="#ffffff"/><rect x="6" y="4" width="1" height="1" fill="#1d2330"/><rect x="7" y="4" width="2" height="1" fill="#f0c8a0"/><rect x="9" y="4" width="1" height="1" fill="#ffffff"/><rect x="10" y="4" width="1" height="1" fill="#1d2330"/><rect x="11" y="4" width="2" height="1" fill="#f0c8a0"/>
  <rect x="3" y="5" width="2" height="1" fill="#f0c8a0"/><rect x="5" y="5" width="2" height="1" fill="#1d2330"/><rect x="7" y="5" width="2" height="1" fill="#f0c8a0"/><rect x="9" y="5" width="2" height="1" fill="#1d2330"/><rect x="11" y="5" width="2" height="1" fill="#f0c8a0"/>
  <rect x="3" y="6" width="1" height="1" fill="#ef9f7e"/><rect x="4" y="6" width="8" height="1" fill="#f0c8a0"/><rect x="12" y="6" width="1" height="1" fill="#ef9f7e"/>
  <rect x="3" y="7" width="3" height="1" fill="#f0c8a0"/><rect x="6" y="7" width="1" height="1" fill="#9c4630"/><rect x="7" y="7" width="2" height="1" fill="#f0c8a0"/><rect x="9" y="7" width="1" height="1" fill="#9c4630"/><rect x="10" y="7" width="3" height="1" fill="#f0c8a0"/>
  <rect x="3" y="8" width="4" height="1" fill="#f0c8a0"/><rect x="7" y="8" width="2" height="1" fill="#9c4630"/><rect x="9" y="8" width="4" height="1" fill="#f0c8a0"/>
  <rect x="4" y="9" width="6" height="1" fill="#e0b088"/>
  <rect x="3" y="10" width="10" height="1" fill="#7a5230"/>
  <rect x="2" y="11" width="12" height="1" fill="#7a5230"/>
  <rect x="2" y="12" width="5" height="1" fill="#7a5230"/><rect x="7" y="12" width="2" height="1" fill="#4a3019"/><rect x="9" y="12" width="5" height="1" fill="#7a5230"/>
  <rect x="2" y="13" width="5" height="1" fill="#7a5230"/><rect x="7" y="13" width="2" height="1" fill="#4a3019"/><rect x="9" y="13" width="5" height="1" fill="#7a5230"/>
  <rect x="3" y="14" width="10" height="1" fill="#7a5230"/>
</svg>
